HIERARCHY
ROOT Hips
{
    OFFSET 0.000000 0.000000 0.000000
    CHANNELS 6 Xposition Yposition Zposition Zrotation Xrotation Yrotation
        JOINT Chest
        {
            OFFSET -0.000000 26.978363 -0.000000
            CHANNELS 3 Zrotation Xrotation Yrotation
            JOINT Neck
            {
                OFFSET -0.000000 19.720629 0.000000
                CHANNELS 3 Zrotation Xrotation Yrotation
                JOINT Head
                {
                    OFFSET -0.000000 9.655557 0.000000
                    CHANNELS 3 Zrotation Xrotation Yrotation
                    End Site
                    {
                        OFFSET -0.000000 14.922232 0.000000
                    }
                }
            }
            JOINT LeftCollar
            {
                OFFSET -0.000000 19.720629 0.000000
                CHANNELS 3 Zrotation Xrotation Yrotation
                JOINT LeftShoulder
                {
                    OFFSET 17.555553 -0.000000 0.000000
                    CHANNELS 3 Zrotation Xrotation Yrotation
                    JOINT LeftElbow
                    {
                        OFFSET 22.589397 0.000000 0.000000
                        CHANNELS 3 Zrotation Xrotation Yrotation
                        JOINT LeftWrist
                        {
                            OFFSET 20.401022 0.000000 0.000000
                            CHANNELS 3 Zrotation Xrotation Yrotation
                            End Site
                            {
                                OFFSET 0.000000 -13.166666 0.000000
                            }
                        }
                    }
                }
            }
            JOINT RightCollar
            {
                OFFSET -0.000000 19.720629 0.000000
                CHANNELS 3 Zrotation Xrotation Yrotation
                JOINT RightShoulder
                {
                    OFFSET -17.555553 0.000000 0.000000
                    CHANNELS 3 Zrotation Xrotation Yrotation
                    JOINT RightElbow
                    {
                        OFFSET -22.589397 0.000000 0.000000
                        CHANNELS 3 Zrotation Xrotation Yrotation
                        JOINT RightWrist
                        {
                            OFFSET -20.401022 0.000000 0.000000
                            CHANNELS 3 Zrotation Xrotation Yrotation
                            End Site
                            {
                                OFFSET -0.000000 -13.166666 0.000000
                            }
                        }
                    }
                }
            }
        }
    JOINT LeftHip
    {
        OFFSET 10.533332 0.000000 0.000000
        CHANNELS 3 Zrotation Xrotation Yrotation
        JOINT LeftKnee
        {
            OFFSET -0.000000 -40.048210 0.000000
            CHANNELS 3 Zrotation Xrotation Yrotation
            JOINT LeftAnkle
            {
                OFFSET -0.000000 -36.098888 0.000000
                CHANNELS 3 Zrotation Xrotation Yrotation
                End Site
                {
                    OFFSET -0.000000 -4.388888 14.922232
                }
            }
        }
    }
    JOINT RightHip
    {
        OFFSET -10.533332 0.000000 0.000000
        CHANNELS 3 Zrotation Xrotation Yrotation
        JOINT RightKnee
        {
            OFFSET -0.000000 -40.048210 0.000000
            CHANNELS 3 Zrotation Xrotation Yrotation
            JOINT RightAnkle
            {
                OFFSET -0.000000 -36.098888 0.000000
                CHANNELS 3 Zrotation Xrotation Yrotation
                End Site
                {
                    OFFSET -0.000000 -4.388888 14.922232
                }
            }
        }
    }
}
MOTION
Frames:    6
Frame Time:    0.010000
-57.081669    84.587570    -42.728157    2.594573    -2.358131    57.498859    -6.761829    2.560172    0.919555    20.142673    16.183949    -21.718626    3.808210    -18.706293    -20.901081    -26.153111    0.209996    -0.756542    38.482544    62.152130    -95.898628    12.002203    -3.314748    -31.025562    117.712418    58.512997    80.665596    9.938416    0.169173    2.267196    72.061447    6.887728    17.549770    42.518822    5.826362    14.974009    -89.150230    -17.581173    33.837887    0.396822    8.494980    6.666185    2.107399    2.636563    24.214987    -7.706590    -5.326773    -4.785820    -3.897368    2.945294    -4.276726    0.799948    3.846127    -5.686388    3.657881    -6.112964    -1.665080    
-57.069706    84.586884    -42.730038    2.583255    -2.355981    57.448902    -6.742078    2.603625    0.895233    20.409033    16.045465    -21.932186    -2.276824    -13.637810    -19.317026    -26.148136    0.237898    -1.032898    38.676205    62.239002    -96.070152    12.041728    -3.361576    -31.044058    117.739685    58.531097    80.593834    9.925586    0.196690    2.007997    72.132950    6.722917    17.599592    42.566742    5.810087    14.798489    -89.084427    -17.613922    33.896896    0.377774    8.516741    6.635342    2.122057    2.593869    24.353268    -7.735096    -5.260608    -4.837935    -3.896585    2.924335    -4.334095    0.797389    3.849740    -5.549227    5.269951    -6.398864    -2.326351    
-57.044094    84.565987    -42.716808    2.577409    -2.359461    57.397110    -6.737033    2.604170    0.867152    20.333382    16.114660    -21.956537    -2.422117    -13.693632    -19.345337    -26.138836    0.237734    -0.988456    38.664177    62.194592    -96.065407    12.033290    -3.356506    -31.038605    117.696106    58.497173    80.563309    9.931054    0.168889    2.024591    72.100029    6.800344    17.586617    42.550758    5.834811    14.939568    -89.034164    -17.503336    33.852203    0.368685    8.539496    6.642328    2.118411    2.579040    24.380974    -7.818771    -5.288402    -4.766830    -3.892400    2.937118    -4.217243    0.792297    3.816575    -5.646828    4.188117    -6.171605    -1.866531    
-57.034504    84.566261    -42.716053    2.571576    -2.359528    57.359379    -6.722433    2.617269    0.847919    20.306177    16.116413    -21.972078    -2.579994    -13.751655    -19.381678    -26.137463    0.217925    -0.987857    38.686726    62.194782    -96.097710    12.052008    -3.367748    -31.027939    117.667976    58.488476    80.546516    9.912264    0.202510    2.027698    72.112846    6.758161    17.621342    42.595737    5.805752    14.784435    -89.031487    -17.620003    33.850849    0.359852    8.553514    6.641286    2.120207    2.565358    24.424730    -7.836123    -5.284350    -4.764060    -3.893471    2.936351    -4.188831    0.792286    3.804274    -5.638014    4.235695    -6.169477    -1.890021    
-57.024193    84.568100    -42.715828    2.564653    -2.359045    57.316040    -6.706582    2.631661    0.826137    20.270941    16.117720    -21.984049    -2.750568    -13.815681    -19.420450    -26.134716    0.237663    -0.985736    38.634090    62.183010    -96.045967    11.993241    -3.355517    -31.074986    117.745232    58.496105    80.454300    9.893757    0.182059    2.033417    72.128563    6.750129    17.613947    42.558075    5.824769    14.884713    -88.945374    -17.508524    33.860809    0.350380    8.566685    6.644265    2.121208    2.555517    24.465397    -7.855242    -5.284079    -4.757459    -3.895760    2.935574    -4.154860    0.793031    3.790076    -5.628527    4.271123    -6.165064    -1.909989    
-57.012760    84.570709    -42.715775    2.556573    -2.357780    57.267647    -6.691311    2.646062    0.801982    20.235422    16.115143    -21.995699    -2.937539    -13.875550    -19.461849    -26.131994    0.203347    -0.990057    38.712032    62.181870    -96.136543    12.065379    -3.375775    -31.016735    117.608871    58.487694    80.518837    9.876463    0.161650    2.033137    72.147858    6.732654    17.605333    42.552696    5.802877    14.859431    -88.897293    -17.554876    33.866711    0.340558    8.577475    6.652296    2.120853    2.552108    24.499250    -7.878012    -5.289374    -4.744230    -3.899444    2.934601    -4.115398    0.794671    3.774232    -5.619022    4.287404    -6.157267    -1.924356    
